# xmcd
#
# Track frame offsets:
#	150
#	19010
#	36437
#	55912
#	84485
#	102770
#	121950
#	137850
#	157527
#	174925
#
# Disc length: 2567 seconds
#
# Revision: 2
# Processed by: cddbd v1.4PL0 Copyright (c) Steve Scherf et al.
# Submitted via: audiograbber 1.82.02
#
DISCID=720a050a
DTITLE=Bluestone Band - Praise In The Streets
DYEAR=1991
DGENRE=Contemporary ChristianChristian Rock
TTITLE0=For The Lonely Heart
TTITLE1=The Wind and The Fire
TTITLE2=Early Hours Of Morning
TTITLE3=Who Is This Man?
TTITLE4=The Visit
TTITLE5=I Call You By Name
TTITLE6=Who Would Not Love You
TTITLE7=Come To Me Children
TTITLE8=Abba Father
TTITLE9=Holy Is Your Name
EXTD=
EXTT0=
EXTT1=
EXTT2=
EXTT3=
EXTT4=
EXTT5=
EXTT6=
EXTT7=
EXTT8=
EXTT9=
PLAYORDER=
